<svg xmlns="http://www.w3.org/2000/svg" viewBox="0 0 192.34 44.77"><defs><style>.cls-1,.cls-5{opacity:0.97;}.cls-1{font-size:38px;fill:#22428d;font-family:CooperBlackStd, Cooper Std;}.cls-2,.cls-8{fill:#fff;}.cls-2,.cls-4,.cls-5,.cls-8{stroke:#22408d;stroke-miterlimit:10;}.cls-2{stroke-width:3px;}.cls-3{fill:#22408d;}.cls-4{fill:none;stroke-linecap:round;}.cls-4,.cls-5,.cls-8{stroke-width:2px;}.cls-5{fill:#fcee18;}.cls-6{fill:#e41e26;}.cls-7{fill:#fbfcfd;}</style></defs><g id="Layer_1" data-name="Layer 1"><text class="cls-1" transform="translate(56.35 35.27) scale(0.62 1)">BOOK OFF</text><circle class="cls-2" cx="26.32" cy="18.12" r="16.62"/><circle class="cls-3" cx="21.42" cy="11.72" r="1.36"/><circle class="cls-3" cx="31.23" cy="11.72" r="1.36"/><path class="cls-4" d="M23.39,26.92c4.45,3.35,8.79,3.21,13,0" transform="translate(-3.33 -10.03)"/><path class="cls-5" d="M7.77,31.25V45.68h10.8c5.14,0,10.79,2.79,10.79,2.79V34a25,25,0,0,0-10.79-2.79Z" transform="translate(-3.33 -10.03)"/><path class="cls-5" d="M42,31.25A25.1,25.1,0,0,0,31.2,34V48.47s5.66-2.79,10.8-2.79H52.8V31.25Z" transform="translate(-3.33 -10.03)"/><rect class="cls-6" x="6.28" y="29.83" width="11.55" height="4.09"/><path class="cls-7" d="M10.84,41.42c0-.37.39-.84,1.15-.84a3.38,3.38,0,0,1,.58.1c.06,0,.11,0,.19,0a.64.64,0,0,1,.43.58.23.23,0,0,1-.23.25c-.26,0-.41-.41-.82-.41-.12,0-.24.05-.24.18,0,.28.53.21,1,.49a.66.66,0,0,1,.36.6c0,.42-.37.9-1.28.9a2.55,2.55,0,0,1-.92-.17c-.19-.1-.27-.48-.27-.67s0-.2.16-.2c.28,0,.23.58,1,.58.08,0,.3,0,.3-.18s-.54-.19-1-.52A.79.79,0,0,1,10.84,41.42Z" transform="translate(-3.33 -10.03)"/><path class="cls-7" d="M15.78,41.26c0-.39-.34-.24-.34-.45s.46-.22.62-.22.57,0,.57.21-.29.08-.29.41v1c0,.16,0,1-1.34,1-1.54,0-1.37-1.1-1.37-1.14v-.84c0-.23-.25-.23-.25-.4s0-.25.76-.25c.64,0,.77.11.77.25s-.29,0-.31.46V42c0,.43.18.7.59.7.62,0,.59-.47.59-.51Z" transform="translate(-3.33 -10.03)"/><path class="cls-7" d="M18.83,41.5c.05,0,.17.14.24.14s.1-.15.1-.21a1.23,1.23,0,0,0,0-.33c-.06-.15-.26-.09-.26-.29s.39-.22.56-.22.59,0,.59.23-.2.13-.27.3a1.6,1.6,0,0,0-.05.49v.94c0,.16,0,.66-.24.66a.31.31,0,0,1-.2-.09l-1.21-1s-.15-.14-.23-.14-.13.24-.13.31a1.69,1.69,0,0,0,0,.33c.06.24.26.15.26.33s-.4.26-.58.26-.58,0-.58-.26.23-.11.26-.34a3.39,3.39,0,0,0,0-.55,5.23,5.23,0,0,0,0-.79c-.07-.36-.35-.22-.35-.44s.53-.24.7-.24a.5.5,0,0,1,.46.16Z" transform="translate(-3.33 -10.03)"/><circle class="cls-8" cx="4.39" cy="27.56" r="3.39"/><circle class="cls-8" cx="48.74" cy="27.56" r="3.39"/></g></svg>